<svg xmlns="http://www.w3.org/2000/svg" xmlns:xlink="http://www.w3.org/1999/xlink" aria-hidden="true" role="img" class="iconify iconify--logos" width="35.93" height="32" preserveAspectRatio="xMidYMid meet" viewBox="0 0 256 228"><path fill="#00D8FF" d="M210.483 73.824a171.49 171.49 0 0 0-8.24-2.597c.465-1.9.893-3.777 1.273-5.621c6.238-30.281 2.16-54.676-11.769-62.708c-13.355-7.7-35.196.329-57.254 19.526a171.23 171.23 0 0 0-6.375 5.848a155.866 155.866 0 0 0-4.241-3.917C100.759 3.829 77.587-4.822 63.673 3.233C50.33 10.957 46.379 33.89 51.995 62.588a170.974 170.974 0 0 0 1.892 8.48c-3.28.932-6.445 1.924-9.474 2.98C17.309 83.498 0 98.307 0 113.668c0 15.865 18.582 31.778 46.812 41.427a145.52 145.52 0 0 0 6.921 2.165a167.467 167.467 0 0 0-2.01 9.138c-5.354 28.2-1.173 50.591 12.134 58.266c13.744 7.926 36.812-.22 59.273-19.855a145.567 145.567 0 0 0 5.342-4.923a168.064 168.064 0 0 0 6.92 6.314c21.758 18.722 43.246 26.282 56.54 18.586c13.731-7.949 18.194-32.003 12.4-61.268a145.016 145.016 0 0 0-1.535-6.842c1.62-.48 3.21-.974 4.76-1.488c29.348-9.723 48.443-25.443 48.443-41.52c0-15.417-17.868-30.326-45.517-39.844Zm-6.365 70.984c-1.596.54-3.233 1.055-4.9 1.548a197.48 197.48 0 0 0-6.213-17.208a192.032 192.032 0 0 0 5.105-16.58c2.101.654 4.16 1.338 6.157 2.056c17.027 6.006 28.06 15.153 28.06 23.86c0 9.221-11.774 18.683-28.21 26.324Zm-11.26 29.799c-4.917 2.479-9.917 4.68-14.978 6.607c-2.85-5.627-5.964-11.228-9.327-16.79a195.048 195.048 0 0 0 12.422-4.95a195.016 195.016 0 0 0-12.422-4.95c3.363-5.562 6.477-11.163 9.327-16.79c5.061 1.927 10.061 4.128 14.978 6.607c17.44 8.79 28.56 20.214 28.56 29.133c0 8.919-11.12 20.343-28.56 29.133ZM128 149.787c-3.554-3.597-7.028-7.32-10.4-11.156c3.38.14 6.838.21 10.4.21c3.562 0 7.02-.07 10.4-.21c-3.372 3.836-6.846 7.559-10.4 11.156Zm0-78.24c3.554 3.597 7.028 7.32 10.4 11.156c-3.38-.14-6.838-.21-10.4-.21c-3.562 0-7.02.07-10.4.21c3.372-3.836 6.846-7.559 10.4-11.156ZM89.608 85.07a195.016 195.016 0 0 0-12.422 4.95c-2.85-5.627-5.964-11.228-9.327-16.79c4.917-2.479 9.917-4.68 14.978-6.607c17.44-8.79 28.56-20.214 28.56-29.133c0-8.919-11.12-20.343-28.56-29.133c-4.917-2.479-9.917-4.68-14.978-6.607c2.85 5.627 5.964 11.228 9.327 16.79a195.048 195.048 0 0 0-12.422 4.95a195.016 195.016 0 0 0 12.422 4.95c-3.363 5.562-6.477 11.163-9.327 16.79c-5.061-1.927-10.061-4.128-14.978-6.607C34.17 30.068 23.05 18.644 23.05 9.725c0-8.919 11.12-20.343 28.56-29.133Z"></path></svg>
